<svg width="32" height="32" viewBox="0 0 32 32" fill="none" xmlns="http://www.w3.org/2000/svg">
<path fill-rule="evenodd" clip-rule="evenodd" d="M9.95337 1.42137C11.5174 1.34937 12.016 1.33337 16 1.33337C19.984 1.33337 20.4827 1.35071 22.0454 1.42137C23.608 1.49204 24.6747 1.74137 25.608 2.10271C26.5854 2.47204 27.472 3.04937 28.2054 3.79604C28.952 4.52804 29.528 5.41337 29.896 6.39204C30.2587 7.32537 30.5067 8.39204 30.5787 9.95204C30.6507 11.5187 30.6667 12.0174 30.6667 16C30.6667 19.984 30.6494 20.4827 30.5787 22.0467C30.508 23.6067 30.2587 24.6734 29.896 25.6067C29.528 26.5855 28.9511 27.4723 28.2054 28.2054C27.472 28.952 26.5854 29.528 25.608 29.896C24.6747 30.2587 23.608 30.5067 22.048 30.5787C20.4827 30.6507 19.984 30.6667 16 30.6667C12.016 30.6667 11.5174 30.6494 9.95337 30.5787C8.39337 30.508 7.32671 30.2587 6.39337 29.896C5.4146 29.528 4.5278 28.951 3.79471 28.2054C3.04855 27.4729 2.47113 26.5866 2.10271 25.608C1.74137 24.6747 1.49337 23.608 1.42137 22.048C1.34937 20.4814 1.33337 19.9827 1.33337 16C1.33337 12.016 1.35071 11.5174 1.42137 9.95471C1.49204 8.39204 1.74137 7.32537 2.10271 6.39204C2.47167 5.41348 3.04953 4.52713 3.79604 3.79471C4.52809 3.04871 5.414 2.4713 6.39204 2.10271C7.32537 1.74137 8.39204 1.49337 9.95204 1.42137H9.95337ZM21.9267 4.06137C20.38 3.99071 19.916 3.97604 16 3.97604C12.084 3.97604 11.62 3.99071 10.0734 4.06137C8.64271 4.12671 7.86671 4.36537 7.34937 4.56671C6.66537 4.83337 6.17604 5.14937 5.66271 5.66271C5.1761 6.13611 4.80161 6.71242 4.56671 7.34937C4.36537 7.86671 4.12671 8.64271 4.06137 10.0734C3.99071 11.62 3.97604 12.084 3.97604 16C3.97604 19.916 3.99071 20.38 4.06137 21.9267C4.12671 23.3574 4.36537 24.1334 4.56671 24.6507C4.80137 25.2867 5.17604 25.864 5.66271 26.3374C6.13604 26.824 6.71337 27.1987 7.34937 27.4334C7.86671 27.6347 8.64271 27.8734 10.0734 27.9387C11.62 28.0094 12.0827 28.024 16 28.024C19.9174 28.024 20.38 28.0094 21.9267 27.9387C23.3574 27.8734 24.1334 27.6347 24.6507 27.4334C25.3347 27.1667 25.824 26.8507 26.3374 26.3374C26.824 25.864 27.1987 25.2867 27.4334 24.6507C27.6347 24.1334 27.8734 23.3574 27.9387 21.9267C28.0094 20.38 28.024 19.916 28.024 16C28.024 12.084 28.0094 11.62 27.9387 10.0734C27.8734 8.64271 27.6347 7.86671 27.4334 7.34937C27.1667 6.66537 26.8507 6.17604 26.3374 5.66271C25.8639 5.17614 25.2876 4.80166 24.6507 4.56671C24.1334 4.36537 23.3574 4.12671 21.9267 4.06137V4.06137ZM14.1267 20.5214C15.1729 20.9569 16.3379 21.0157 17.4226 20.6877C18.5073 20.3597 19.4446 19.6653 20.0742 18.723C20.7038 17.7808 20.9868 16.6492 20.8748 15.5215C20.7628 14.3938 20.2627 13.34 19.46 12.54C18.9484 12.0287 18.3297 11.6371 17.6485 11.3936C16.9673 11.15 16.2406 11.0605 15.5207 11.1315C14.8008 11.2025 14.1056 11.4323 13.4851 11.8042C12.8646 12.1762 12.3344 12.681 11.9324 13.2825C11.5305 13.884 11.267 14.5671 11.1607 15.2827C11.0545 15.9982 11.1082 16.7284 11.3181 17.4207C11.5279 18.113 11.8887 18.7502 12.3743 19.2863C12.86 19.8225 13.4585 20.2443 14.1267 20.5214ZM10.6694 10.6694C11.3694 9.96934 12.2005 9.41404 13.1151 9.03519C14.0297 8.65633 15.01 8.46134 16 8.46134C16.99 8.46134 17.9703 8.65633 18.885 9.03519C19.7996 9.41404 20.6307 9.96934 21.3307 10.6694C22.0307 11.3694 22.586 12.2005 22.9649 13.1151C23.3437 14.0297 23.5387 15.01 23.5387 16C23.5387 16.99 23.3437 17.9703 22.9649 18.885C22.586 19.7996 22.0307 20.6307 21.3307 21.3307C19.9169 22.7445 17.9994 23.5387 16 23.5387C14.0007 23.5387 12.0832 22.7445 10.6694 21.3307C9.25559 19.9169 8.46134 17.9994 8.46134 16C8.46134 14.0007 9.25559 12.0832 10.6694 10.6694V10.6694ZM25.2107 9.58404C25.3842 9.4204 25.5231 9.22362 25.6191 9.00534C25.7152 8.78706 25.7665 8.55173 25.7699 8.31328C25.7734 8.07483 25.729 7.8381 25.6394 7.61712C25.5497 7.39614 25.4166 7.19539 25.248 7.02676C25.0794 6.85813 24.8786 6.72505 24.6576 6.6354C24.4366 6.54574 24.1999 6.50134 23.9615 6.50482C23.723 6.50829 23.4877 6.55958 23.2694 6.65564C23.0511 6.75169 22.8543 6.89057 22.6907 7.06404C22.3725 7.40141 22.1982 7.84954 22.205 8.31328C22.2117 8.77703 22.399 9.21988 22.7269 9.54783C23.0549 9.87578 23.4977 10.063 23.9615 10.0698C24.4252 10.0765 24.8733 9.90229 25.2107 9.58404V9.58404Z" fill="#CCCCCC"/>
</svg>
