<svg width="32" height="32" viewBox="0 0 32 32" fill="none" xmlns="http://www.w3.org/2000/svg">
<path fill-rule="evenodd" clip-rule="evenodd" d="M1.33337 3.78404C1.33337 3.13409 1.59157 2.51075 2.05116 2.05116C2.51075 1.59157 3.13408 1.33338 3.78404 1.33338H28.2134C28.5355 1.33285 28.8545 1.39586 29.1522 1.5188C29.4499 1.64174 29.7205 1.82219 29.9484 2.04983C30.1763 2.27746 30.357 2.54781 30.4803 2.84539C30.6035 3.14297 30.6669 3.46194 30.6667 3.78404V28.2134C30.6671 28.5355 30.6039 28.8546 30.4808 29.1523C30.3577 29.4501 30.1771 29.7206 29.9494 29.9485C29.7217 30.1763 29.4512 30.357 29.1536 30.4803C28.8559 30.6035 28.5369 30.6669 28.2147 30.6667H3.78404C3.4621 30.6667 3.14332 30.6033 2.8459 30.48C2.54849 30.3568 2.27827 30.1762 2.05069 29.9485C1.8231 29.7207 1.64262 29.4504 1.51954 29.1529C1.39646 28.8555 1.3332 28.5366 1.33337 28.2147V3.78404ZM12.944 12.5174H16.916V14.512C17.4894 13.3654 18.956 12.3334 21.16 12.3334C25.3854 12.3334 26.3867 14.6174 26.3867 18.808V26.5707H22.1107V19.7627C22.1107 17.376 21.5374 16.0294 20.0814 16.0294C18.0614 16.0294 17.2214 17.4814 17.2214 19.7627V26.5707H12.944V12.5174ZM5.61071 26.388H9.88804V12.3334H5.61071V26.3867V26.388ZM10.5 7.74938C10.5081 8.11561 10.4429 8.47976 10.3084 8.82046C10.1738 9.16117 9.97251 9.47156 9.71635 9.73342C9.46019 9.99528 9.15431 10.2033 8.81665 10.3454C8.47899 10.4874 8.11636 10.5606 7.75004 10.5606C7.38372 10.5606 7.02109 10.4874 6.68343 10.3454C6.34578 10.2033 6.03989 9.99528 5.78373 9.73342C5.52757 9.47156 5.3263 9.16117 5.19172 8.82046C5.05714 8.47976 4.99198 8.11561 5.00004 7.74938C5.01587 7.03052 5.31255 6.34643 5.82656 5.84363C6.34056 5.34082 7.03101 5.05927 7.75004 5.05927C8.46908 5.05927 9.15953 5.34082 9.67353 5.84363C10.1875 6.34643 10.4842 7.03052 10.5 7.74938V7.74938Z" fill="#CCCCCC"/>
</svg>
