<svg width="32" height="32" viewBox="0 0 32 32" fill="none" xmlns="http://www.w3.org/2000/svg">
<path opacity="0.5" d="M20.364 24.9706C18.5897 24.9709 16.8553 24.445 15.3799 23.4595C13.9045 22.4741 12.7545 21.0732 12.0753 19.4341C11.3961 17.7951 11.2182 15.9914 11.5641 14.2512C11.91 12.511 12.7641 10.9124 14.0185 9.65769C15.2729 8.40293 16.8712 7.54832 18.6112 7.20193C20.3513 6.85554 22.1551 7.03292 23.7943 7.71164C25.4336 8.39037 26.8348 9.53995 27.8207 11.015C28.8067 12.4901 29.333 14.2244 29.3333 15.9986V16C29.3308 18.3781 28.3851 20.6582 26.7036 22.34C25.0221 24.0217 22.7422 24.9678 20.364 24.9706V24.9706Z" fill="#CCCCCC"/>
<path d="M11.636 24.9706C9.86172 24.9706 8.12734 24.4445 6.65212 23.4588C5.1769 22.4731 4.02711 21.0721 3.34814 19.4329C2.66917 17.7937 2.49152 15.99 2.83766 14.2499C3.18379 12.5097 4.03816 10.9113 5.29273 9.65675C6.54731 8.40218 8.14573 7.5478 9.88586 7.20167C11.626 6.85553 13.4297 7.03318 15.0689 7.71215C16.7081 8.39112 18.1091 9.54091 19.0948 11.0161C20.0805 12.4914 20.6066 14.2257 20.6066 16C20.6042 18.3784 19.6582 20.6587 17.9764 22.3405C16.2947 24.0222 14.0144 24.9682 11.636 24.9706Z" fill="#CCCCCC"/>
</svg>
