<svg width="80" height="80" viewBox="0 0 80 80" fill="none" xmlns="http://www.w3.org/2000/svg">
<g clip-path="url(#clip0_42_268)">
<path d="M75 21.25C75 17.8 72.2 15 68.75 15H21.25C17.8 15 15 17.8 15 21.25V48.75C15 52.2 17.8 55 21.25 55H68.75C72.2 55 75 52.2 75 48.75V21.25ZM60 22.5V20H65V22.5C65 23.163 65.2634 23.7989 65.7322 24.2678C66.2011 24.7366 66.837 25 67.5 25H70V30H67.5C65.5109 30 63.6032 29.2098 62.1967 27.8033C60.7902 26.3968 60 24.4891 60 22.5ZM35 35C35 32.3478 36.0536 29.8043 37.9289 27.9289C39.8043 26.0536 42.3478 25 45 25C47.6522 25 50.1957 26.0536 52.0711 27.9289C53.9464 29.8043 55 32.3478 55 35C55 37.6522 53.9464 40.1957 52.0711 42.0711C50.1957 43.9464 47.6522 45 45 45C42.3478 45 39.8043 43.9464 37.9289 42.0711C36.0536 40.1957 35 37.6522 35 35ZM25 20H30V22.5C30 24.4891 29.2098 26.3968 27.8033 27.8033C26.3968 29.2098 24.4891 30 22.5 30H20V25H22.5C23.163 25 23.7989 24.7366 24.2678 24.2678C24.7366 23.7989 25 23.163 25 22.5V20ZM60 47.5C60 45.5109 60.7902 43.6032 62.1967 42.1967C63.6032 40.7902 65.5109 40 67.5 40H70V45H67.5C66.837 45 66.2011 45.2634 65.7322 45.7322C65.2634 46.2011 65 46.837 65 47.5V50H60V47.5ZM25 50V47.5C25 46.837 24.7366 46.2011 24.2678 45.7322C23.7989 45.2634 23.163 45 22.5 45H20V40H22.5C24.4891 40 26.3968 40.7902 27.8033 42.1967C29.2098 43.6032 30 45.5109 30 47.5V50H25ZM57.5 65C59.0839 65.0006 60.6273 64.4997 61.9091 63.5692C63.1908 62.6387 64.145 61.3262 64.635 59.82C63.94 59.94 63.23 60 62.5 60H21.25C18.2663 60 15.4048 58.8147 13.295 56.705C11.1853 54.5952 10 51.7337 10 48.75V25.425C8.53711 25.9422 7.27064 26.9004 6.37514 28.1675C5.47964 29.4347 4.99919 30.9484 5 32.5V48.75C5 50.884 5.42032 52.9971 6.23696 54.9686C7.0536 56.9401 8.25056 58.7315 9.75952 60.2405C11.2685 61.7494 13.0599 62.9464 15.0314 63.763C17.0029 64.5797 19.116 65 21.25 65H57.5Z" fill="#7C73E6"/>
</g>
<defs>
<clipPath id="clip0_42_268">
<rect width="80" height="80" fill="white"/>
</clipPath>
</defs>
</svg>
