<svg width="32" height="32" viewBox="0 0 32 32" fill="none" xmlns="http://www.w3.org/2000/svg">
<g clip-path="url(#clip0_42_409)">
<path d="M10.35 16.1219C10.35 16.7999 9.81102 17.3159 9.12802 17.3159C8.61702 17.3159 8.23902 17.0269 8.23902 16.4829C8.23902 15.8049 8.76702 15.2609 9.44502 15.2609C9.96202 15.2609 10.351 15.5779 10.351 16.1219H10.35ZM4.47202 13.4279H4.21102C4.12802 13.4279 4.04402 13.4839 4.03302 13.5779L3.79402 15.0619L4.25002 15.0449C4.86102 15.0449 5.33302 14.9619 5.44402 14.2559C5.57202 13.5109 5.10002 13.4279 4.47202 13.4279V13.4279ZM20.25 13.4279H20C19.9 13.4279 19.833 13.4839 19.822 13.5779L19.589 15.0619L20.033 15.0449C20.755 15.0449 21.255 14.8779 21.255 14.0449C21.249 13.4559 20.722 13.4279 20.249 13.4279H20.25ZM32 6.22193V25.7779C31.9998 26.4852 31.7187 27.1634 31.2186 27.6635C30.7185 28.1636 30.0403 28.4447 29.333 28.4449H2.66602C1.95877 28.4447 1.28056 28.1636 0.780462 27.6635C0.28036 27.1634 -0.000711526 26.4852 -0.000976562 25.7779V6.22193C-0.000711526 5.51468 0.28036 4.83647 0.780462 4.33637C1.28056 3.83627 1.95877 3.5552 2.66602 3.55493H29.333C30.0403 3.5552 30.7185 3.83627 31.2186 4.33637C31.7187 4.83647 31.9998 5.51468 32 6.22193V6.22193ZM7.12802 13.7439C7.12802 12.5769 6.22802 12.1879 5.20002 12.1879H2.97802C2.90624 12.1885 2.83716 12.2154 2.78389 12.2635C2.73062 12.3116 2.69686 12.3776 2.68902 12.4489L1.77802 18.1209C1.76102 18.2319 1.84502 18.3429 1.95602 18.3429H3.01202C3.16202 18.3429 3.30102 18.1819 3.31802 18.0259L3.56802 16.5479C3.62402 16.1479 4.30102 16.2869 4.56802 16.2869C6.15702 16.2869 7.12902 15.3429 7.12902 13.7429L7.12802 13.7439ZM11.806 14.2329H10.75C10.539 14.2329 10.528 14.5389 10.517 14.6889C10.195 14.2169 9.72802 14.1329 9.20002 14.1329C7.83902 14.1329 6.80002 15.3269 6.80002 16.6439C6.80002 17.7269 7.47802 18.4329 8.56102 18.4329C9.06102 18.4329 9.68302 18.1609 10.033 17.7719C10.0007 17.8843 9.9819 18.0001 9.97702 18.1169C9.97702 18.2449 10.033 18.3389 10.155 18.3389H11.111C11.261 18.3389 11.389 18.1779 11.417 18.0219L11.984 14.4499C12.001 14.3439 11.917 14.2329 11.806 14.2329V14.2329ZM14.056 19.6719L17.595 14.5269C17.623 14.4989 17.623 14.4709 17.623 14.4329C17.623 14.3389 17.54 14.2389 17.445 14.2389H16.378C16.3284 14.2409 16.2799 14.2545 16.2365 14.2786C16.193 14.3028 16.1559 14.3368 16.128 14.3779L14.656 16.5449L14.045 14.4619C14.0221 14.3986 13.9806 14.3436 13.9261 14.304C13.8715 14.2644 13.8064 14.2421 13.739 14.2399H12.7C12.605 14.2399 12.522 14.3399 12.522 14.4339C12.522 14.5009 13.605 17.5899 13.7 17.8839C13.55 18.0949 12.561 19.4729 12.561 19.6399C12.561 19.7399 12.644 19.8179 12.739 19.8179H13.806C13.8559 19.8146 13.9044 19.8 13.9478 19.775C13.9911 19.75 14.0281 19.7155 14.056 19.6739V19.6719ZM22.906 13.7439C22.906 12.5769 22.006 12.1879 20.978 12.1879H18.772C18.6981 12.1873 18.6265 12.2134 18.5703 12.2613C18.5141 12.3093 18.4771 12.3759 18.466 12.4489L17.566 18.1159C17.555 18.2269 17.638 18.3379 17.744 18.3379H18.883C18.994 18.3379 19.077 18.2549 19.105 18.1599L19.355 16.5489C19.411 16.1489 20.089 16.2879 20.355 16.2879C21.933 16.2879 22.905 15.3439 22.905 13.7439H22.906ZM27.583 14.2329H26.527C26.316 14.2329 26.305 14.5389 26.288 14.6889C25.982 14.2169 25.51 14.1329 24.971 14.1329C23.61 14.1329 22.571 15.3269 22.571 16.6439C22.571 17.7269 23.249 18.4329 24.332 18.4329C24.849 18.4329 25.471 18.1609 25.804 17.7719C25.787 17.8549 25.748 18.0329 25.748 18.1169C25.748 18.2449 25.804 18.3389 25.926 18.3389H26.887C27.037 18.3389 27.165 18.1779 27.193 18.0219L27.76 14.4499C27.777 14.3439 27.693 14.2329 27.582 14.2329H27.583ZM30.222 12.3829C30.222 12.2719 30.139 12.1889 30.044 12.1889H29.016C28.933 12.1889 28.849 12.2559 28.838 12.3389L27.938 18.1169L27.922 18.1449C27.922 18.2449 28.005 18.3389 28.116 18.3389H29.033C29.172 18.3389 29.311 18.1779 29.322 18.0219L30.222 12.3999V12.3829ZM25.222 15.2609C24.544 15.2609 24.016 15.7999 24.016 16.4829C24.016 17.0219 24.405 17.3159 24.916 17.3159C25.583 17.3159 26.122 16.8049 26.122 16.1219C26.128 15.5779 25.739 15.2609 25.222 15.2609V15.2609Z" fill="#CCCCCC"/>
</g>
<defs>
<clipPath id="clip0_42_409">
<rect width="32" height="32" fill="white"/>
</clipPath>
</defs>
</svg>
