<svg width="80" height="80" viewBox="0 0 80 80" fill="none" xmlns="http://www.w3.org/2000/svg">
<g clip-path="url(#clip0_42_265)">
<path d="M37.7134 51.6666C38.2823 49.9056 39.0755 48.2252 40.0734 46.6666H14.1734C12.1863 46.6675 10.2809 47.4573 8.87578 48.8624C7.47069 50.2674 6.68094 52.1729 6.68005 54.16V56.0866C6.68005 59.06 7.74005 61.94 9.67339 64.2033C14.8934 70.3166 22.8467 73.3333 33.3334 73.3333C36.4367 73.3333 39.3201 73.0666 41.9734 72.5366C40.7704 71.1525 39.7478 69.6214 38.9301 67.98C37.0743 68.2203 35.2046 68.3372 33.3334 68.33C24.2067 68.33 17.6534 65.8466 13.4767 60.9533C12.316 59.596 11.6778 57.8692 11.6767 56.0833V54.1566C11.6776 53.4942 11.9414 52.8591 12.4101 52.391C12.8789 51.9229 13.5143 51.66 14.1767 51.66H37.7101L37.7134 51.6666ZM33.3334 6.67664C37.7537 6.67664 41.9929 8.43258 45.1185 11.5582C48.2441 14.6838 50.0001 18.923 50.0001 23.3433C50.0001 27.7636 48.2441 32.0028 45.1185 35.1284C41.9929 38.254 37.7537 40.01 33.3334 40.01C28.9131 40.01 24.6739 38.254 21.5483 35.1284C18.4227 32.0028 16.6667 27.7636 16.6667 23.3433C16.6667 18.923 18.4227 14.6838 21.5483 11.5582C24.6739 8.43258 28.9131 6.67664 33.3334 6.67664V6.67664ZM33.3334 11.6766C30.2392 11.6766 27.2717 12.9058 25.0838 15.0937C22.8959 17.2816 21.6667 20.2491 21.6667 23.3433C21.6667 26.4375 22.8959 29.405 25.0838 31.5929C27.2717 33.7808 30.2392 35.01 33.3334 35.01C36.4276 35.01 39.395 33.7808 41.583 31.5929C43.7709 29.405 45.0001 26.4375 45.0001 23.3433C45.0001 20.2491 43.7709 17.2816 41.583 15.0937C39.395 12.9058 36.4276 11.6766 33.3334 11.6766V11.6766ZM76.6667 58.3333C76.6667 63.1956 74.7352 67.8588 71.297 71.2969C67.8588 74.7351 63.1957 76.6666 58.3334 76.6666C53.4711 76.6666 48.8079 74.7351 45.3698 71.2969C41.9316 67.8588 40.0001 63.1956 40.0001 58.3333C40.0001 53.471 41.9316 48.8078 45.3698 45.3697C48.8079 41.9315 53.4711 40 58.3334 40C63.1957 40 67.8588 41.9315 71.297 45.3697C74.7352 48.8078 76.6667 53.471 76.6667 58.3333V58.3333ZM54.5134 51.18C54.8263 50.867 55.0022 50.4426 55.0022 50C55.0022 49.5574 54.8263 49.1329 54.5134 48.82C54.2004 48.507 53.776 48.3312 53.3334 48.3312C52.8908 48.3312 52.4663 48.507 52.1534 48.82L47.1534 53.82C46.9982 53.9748 46.875 54.1587 46.791 54.3612C46.707 54.5637 46.6637 54.7807 46.6637 55C46.6637 55.2192 46.707 55.4363 46.791 55.6387C46.875 55.8412 46.9982 56.0251 47.1534 56.18L52.1534 61.18C52.4663 61.4929 52.8908 61.6687 53.3334 61.6687C53.776 61.6687 54.2004 61.4929 54.5134 61.18C54.8263 60.867 55.0022 60.4426 55.0022 60C55.0022 59.5574 54.8263 59.1329 54.5134 58.82L52.3567 56.6666H59.1667C60.1516 56.6666 61.1269 56.8606 62.0368 57.2375C62.9468 57.6144 63.7736 58.1669 64.47 58.8633C65.1665 59.5598 65.7189 60.3866 66.0958 61.2965C66.4727 62.2064 66.6667 63.1817 66.6667 64.1666V65C66.6667 65.442 66.8423 65.8659 67.1549 66.1785C67.4674 66.491 67.8914 66.6666 68.3334 66.6666C68.7754 66.6666 69.1993 66.491 69.5119 66.1785C69.8245 65.8659 70.0001 65.442 70.0001 65V64.1666C70.0001 61.2935 68.8587 58.538 66.827 56.5063C64.7954 54.4747 62.0399 53.3333 59.1667 53.3333H52.3567L54.5134 51.18Z" fill="#7C73E6"/>
</g>
<defs>
<clipPath id="clip0_42_265">
<rect width="80" height="80" fill="white"/>
</clipPath>
</defs>
</svg>
