<svg width="24" height="25" viewBox="0 0 24 25" fill="none" xmlns="http://www.w3.org/2000/svg">
<path d="M3.97701 10.34C4.01724 9.83881 4.24477 9.37115 4.61429 9.03017C4.98381 8.68918 5.46821 8.4999 5.97101 8.5H18.029C18.5318 8.4999 19.0162 8.68918 19.3857 9.03017C19.7553 9.37115 19.9828 9.83881 20.023 10.34L20.826 20.34C20.8481 20.6152 20.813 20.892 20.7228 21.1529C20.6327 21.4139 20.4895 21.6533 20.3023 21.8562C20.1151 22.0592 19.8879 22.2211 19.635 22.3319C19.3822 22.4427 19.1091 22.4999 18.833 22.5H5.16701C4.89093 22.4999 4.61786 22.4427 4.36499 22.3319C4.11212 22.2211 3.88492 22.0592 3.69771 21.8562C3.51049 21.6533 3.36731 21.4139 3.27718 21.1529C3.18705 20.892 3.15193 20.6152 3.17401 20.34L3.97701 10.34V10.34Z" stroke="black" stroke-width="2" stroke-linecap="round" stroke-linejoin="round"/>
<path d="M16 11.5V6.5C16 5.43913 15.5786 4.42172 14.8284 3.67157C14.0783 2.92143 13.0609 2.5 12 2.5C10.9391 2.5 9.92172 2.92143 9.17157 3.67157C8.42143 4.42172 8 5.43913 8 6.5V11.5" stroke="black" stroke-width="2" stroke-linecap="round" stroke-linejoin="round"/>
</svg>
