<svg width="80" height="80" viewBox="0 0 80 80" fill="none" xmlns="http://www.w3.org/2000/svg">
<g clip-path="url(#clip0_42_260)">
<path d="M1.09195e-08 17.5C1.09195e-08 15.5109 0.790176 13.6032 2.1967 12.1967C3.60322 10.7902 5.51088 10 7.5 10H52.5C54.4891 10 56.3968 10.7902 57.8033 12.1967C59.2098 13.6032 60 15.5109 60 17.5V25H65.1C66.2237 25.001 67.3328 25.2545 68.3454 25.7417C69.3579 26.229 70.2481 26.9375 70.95 27.815L78.355 37.065C79.4204 38.3959 80.0007 40.0501 80 41.755V52.5C80 54.4891 79.2098 56.3968 77.8033 57.8033C76.3968 59.2098 74.4891 60 72.5 60H70C70 62.6522 68.9464 65.1957 67.0711 67.0711C65.1957 68.9464 62.6522 70 60 70C57.3478 70 54.8043 68.9464 52.9289 67.0711C51.0536 65.1957 50 62.6522 50 60H25C25.0029 61.3329 24.7392 62.653 24.2246 63.8825C23.71 65.1121 22.9547 66.2264 22.0032 67.1599C21.0518 68.0933 19.9233 68.8272 18.6841 69.3182C17.4449 69.8093 16.1201 70.0477 14.7875 70.0193C13.4548 69.991 12.1413 69.6965 10.9241 69.1532C9.70697 68.61 8.61068 67.8288 7.69974 66.8558C6.7888 65.8827 6.08158 64.7373 5.61967 63.487C5.15776 62.2367 4.95047 60.9066 5.01 59.575C3.54524 59.0595 2.27661 58.102 1.37922 56.8347C0.481828 55.5674 -8.37598e-05 54.0528 1.09195e-08 52.5L1.09195e-08 17.5ZM6.47 54.78C7.37401 53.3 8.64756 52.0806 10.1655 51.2418C11.6834 50.403 13.3935 49.9736 15.1276 49.9958C16.8618 50.018 18.5603 50.491 20.0563 51.3684C21.5522 52.2458 22.7942 53.4973 23.66 55H51.34C52.2195 53.4814 53.4814 52.2195 55 51.34V17.5C55 16.837 54.7366 16.2011 54.2678 15.7322C53.7989 15.2634 53.163 15 52.5 15H7.5C6.83696 15 6.20107 15.2634 5.73223 15.7322C5.26339 16.2011 5 16.837 5 17.5V52.5C4.99961 52.9812 5.1381 53.4523 5.39885 53.8567C5.6596 54.2612 6.03154 54.5817 6.47 54.78ZM60 50C61.7553 50 63.4797 50.4621 64.9999 51.3398C66.52 52.2175 67.7823 53.4798 68.66 55H72.5C73.163 55 73.7989 54.7366 74.2678 54.2678C74.7366 53.7989 75 53.163 75 52.5V41.75C74.999 41.1827 74.805 40.6325 74.45 40.19L67.05 30.94C66.8162 30.6472 66.5195 30.4107 66.182 30.248C65.8445 30.0853 65.4747 30.0005 65.1 30H60V50ZM15 55C13.6739 55 12.4021 55.5268 11.4645 56.4645C10.5268 57.4021 10 58.6739 10 60C10 61.3261 10.5268 62.5979 11.4645 63.5355C12.4021 64.4732 13.6739 65 15 65C16.3261 65 17.5979 64.4732 18.5355 63.5355C19.4732 62.5979 20 61.3261 20 60C20 58.6739 19.4732 57.4021 18.5355 56.4645C17.5979 55.5268 16.3261 55 15 55ZM60 55C58.6739 55 57.4021 55.5268 56.4645 56.4645C55.5268 57.4021 55 58.6739 55 60C55 61.3261 55.5268 62.5979 56.4645 63.5355C57.4021 64.4732 58.6739 65 60 65C61.3261 65 62.5979 64.4732 63.5355 63.5355C64.4732 62.5979 65 61.3261 65 60C65 58.6739 64.4732 57.4021 63.5355 56.4645C62.5979 55.5268 61.3261 55 60 55Z" fill="#7C73E6"/>
</g>
<defs>
<clipPath id="clip0_42_260">
<rect width="80" height="80" fill="white"/>
</clipPath>
</defs>
</svg>
