<svg width="80" height="80" viewBox="0 0 80 80" fill="none" xmlns="http://www.w3.org/2000/svg">
<g clip-path="url(#clip0_42_262)">
<path d="M40 6.66663C21.62 6.66663 6.66669 21.62 6.66669 40V53.81C6.66669 57.2233 9.65669 60 13.3334 60H16.6667C17.5507 60 18.3986 59.6488 19.0237 59.0236C19.6488 58.3985 20 57.5507 20 56.6666V39.5233C20 38.6392 19.6488 37.7914 19.0237 37.1663C18.3986 36.5411 17.5507 36.19 16.6667 36.19H13.64C15.4934 23.29 26.5934 13.3333 40 13.3333C53.4067 13.3333 64.5067 23.29 66.36 36.19H63.3334C62.4493 36.19 61.6014 36.5411 60.9763 37.1663C60.3512 37.7914 60 38.6392 60 39.5233V60C60 63.6766 57.01 66.6666 53.3334 66.6666H46.6667V63.3333H33.3334V73.3333H53.3334C60.6867 73.3333 66.6667 67.3533 66.6667 60C70.3434 60 73.3334 57.2233 73.3334 53.81V40C73.3334 21.62 58.38 6.66663 40 6.66663Z" fill="#7C73E6"/>
</g>
<defs>
<clipPath id="clip0_42_262">
<rect width="80" height="80" fill="white"/>
</clipPath>
</defs>
</svg>
