<svg width="32" height="32" viewBox="0 0 32 32" fill="none" xmlns="http://www.w3.org/2000/svg">
<g clip-path="url(#clip0_42_414)">
<path d="M26.117 14.6279C26.117 14.6279 26.539 16.6949 26.634 17.1279H24.779L25.668 14.7109C25.657 14.7279 25.851 14.2049 25.962 13.8829L26.117 14.6279ZM32 6.22193V25.7779C31.9998 26.4852 31.7187 27.1634 31.2186 27.6635C30.7185 28.1636 30.0403 28.4447 29.333 28.4449H2.66602C1.95877 28.4447 1.28056 28.1636 0.780462 27.6635C0.28036 27.1634 -0.000711526 26.4852 -0.000976562 25.7779V6.22193C-0.000711526 5.51468 0.28036 4.83647 0.780462 4.33637C1.28056 3.83627 1.95877 3.5552 2.66602 3.55493H29.333C30.0403 3.5552 30.7185 3.83627 31.2186 4.33637C31.7187 4.83647 31.9998 5.51468 32 6.22193V6.22193ZM8.47202 20.1779L11.983 11.5559H9.62202L7.43902 17.4449L7.20002 16.2509L6.42202 12.2839C6.29402 11.7339 5.90002 11.5779 5.41102 11.5559H1.81702L1.77802 11.7279C2.6011 11.9299 3.39062 12.2498 4.12202 12.6779L6.11102 20.1779H8.47202ZM13.717 20.1889L15.117 11.5559H12.884L11.49 20.1889H13.717ZM21.489 17.3669C21.5 16.3839 20.9 15.6339 19.617 15.0169C18.834 14.6219 18.356 14.3559 18.356 13.9499C18.367 13.5829 18.762 13.2049 19.639 13.2049C20.2102 13.1888 20.7778 13.3009 21.3 13.5329L21.5 13.6269L21.806 11.7599C21.1676 11.5155 20.4896 11.3911 19.806 11.3929C17.6 11.3929 16.05 12.5709 16.039 14.2479C16.022 15.4869 17.15 16.1759 17.995 16.5919C18.856 17.0139 19.151 17.2919 19.151 17.6639C19.14 18.2419 18.451 18.5079 17.812 18.5079C16.923 18.5079 16.445 18.3689 15.717 18.0469L15.423 17.9079L15.112 19.8469C15.634 20.0859 16.601 20.2969 17.601 20.3079C19.945 20.3129 21.473 19.1519 21.49 17.3639L21.489 17.3669ZM29.333 20.1889L27.533 11.5559H25.805C25.272 11.5559 24.866 11.7119 24.638 12.2729L21.321 20.1899H23.665C23.665 20.1899 24.048 19.1229 24.132 18.8959H26.999C27.066 19.2019 27.266 20.1899 27.266 20.1899L29.333 20.1889Z" fill="#CCCCCC"/>
</g>
<defs>
<clipPath id="clip0_42_414">
<rect width="32" height="32" fill="white"/>
</clipPath>
</defs>
</svg>
